<svg width="197" height="153" viewBox="0 0 197 153" fill="none" xmlns="http://www.w3.org/2000/svg">
<path d="M182 36C182 24.9543 173.046 16 162 16H36C24.9543 16 16 24.9543 16 36V55.75H182V36Z" fill="#007A3D"/>
<path fill-rule="evenodd" clip-rule="evenodd" d="M182 55.75V95.5L16 96.5V55.75H182Z" fill="white"/>
<path d="M16 116C16 127.046 24.9543 136 36 136H162C173.046 136 182 127.046 182 116V95.5L16 96.5V116Z" fill="black"/>
<path d="M52.5 64L55.3064 72.6373H64.3882L57.0409 77.9754L59.8473 86.6127L52.5 81.2746L45.1527 86.6127L47.9591 77.9754L40.6118 72.6373H49.6936L52.5 64Z" fill="#CE1126"/>
<path d="M98.5 64L101.306 72.6373H110.388L103.041 77.9754L105.847 86.6127L98.5 81.2746L91.1527 86.6127L93.9591 77.9754L86.6118 72.6373H95.6936L98.5 64Z" fill="#CE1126"/>
<path d="M144.5 64L147.306 72.6373H156.388L149.041 77.9754L151.847 86.6127L144.5 81.2746L137.153 86.6127L139.959 77.9754L132.612 72.6373H141.694L144.5 64Z" fill="#CE1126"/>
</svg>
