<svg width="200" height="120" viewBox="0 0 200 120" fill="none" xmlns="http://www.w3.org/2000/svg">
<path d="M200 20C200 8.95431 191.046 0 180 0H20C8.95431 0 0 8.95431 0 20V39.75H200V20Z" fill="#007A3D"/>
<path fill-rule="evenodd" clip-rule="evenodd" d="M200 39.75V79.5L0 80.5V39.75H200Z" fill="white"/>
<path d="M0 100C0 111.046 8.95431 120 20 120H180C191.046 120 200 111.046 200 100V79.5L0 80.5V100Z" fill="black"/>
<path d="M49.5 48L52.3064 56.6373H61.3882L54.0409 61.9754L56.8473 70.6127L49.5 65.2746L42.1527 70.6127L44.9591 61.9754L37.6118 56.6373H46.6936L49.5 48Z" fill="#CE1126"/>
<path d="M99.5 48L102.306 56.6373H111.388L104.041 61.9754L106.847 70.6127L99.5 65.2746L92.1527 70.6127L94.9591 61.9754L87.6118 56.6373H96.6936L99.5 48Z" fill="#CE1126"/>
<path d="M149.5 48L152.306 56.6373H161.388L154.041 61.9754L156.847 70.6127L149.5 65.2746L142.153 70.6127L144.959 61.9754L137.612 56.6373H146.694L149.5 48Z" fill="#CE1126"/>
</svg>
